<svg id="visual" viewBox="0 0 1440 500" width="1440" height="500" xmlns="http://www.w3.org/2000/svg" xmlns:xlink="http://www.w3.org/1999/xlink" version="1.1"><path d="M0 207L144 175L288 239L432 206L576 198L720 217L864 203L1008 169L1152 225L1296 211L1440 211L1440 501L1296 501L1152 501L1008 501L864 501L720 501L576 501L432 501L288 501L144 501L0 501Z" fill="#5941a9"></path><path d="M0 235L144 241L288 252L432 208L576 217L720 247L864 228L1008 224L1152 228L1296 227L1440 222L1440 501L1296 501L1152 501L1008 501L864 501L720 501L576 501L432 501L288 501L144 501L0 501Z" fill="#563d9d"></path><path d="M0 252L144 264L288 264L432 259L576 287L720 221L864 266L1008 223L1152 278L1296 277L1440 270L1440 501L1296 501L1152 501L1008 501L864 501L720 501L576 501L432 501L288 501L144 501L0 501Z" fill="#533a91"></path><path d="M0 291L144 281L288 251L432 310L576 256L720 277L864 266L1008 298L1152 254L1296 263L1440 268L1440 501L1296 501L1152 501L1008 501L864 501L720 501L576 501L432 501L288 501L144 501L0 501Z" fill="#4f3685"></path><path d="M0 321L144 292L288 322L432 279L576 286L720 331L864 289L1008 318L1152 324L1296 318L1440 310L1440 501L1296 501L1152 501L1008 501L864 501L720 501L576 501L432 501L288 501L144 501L0 501Z" fill="#4b337a"></path><path d="M0 333L144 321L288 344L432 339L576 342L720 321L864 351L1008 324L1152 344L1296 357L1440 322L1440 501L1296 501L1152 501L1008 501L864 501L720 501L576 501L432 501L288 501L144 501L0 501Z" fill="#47306e"></path><path d="M0 362L144 340L288 325L432 356L576 354L720 358L864 370L1008 342L1152 378L1296 323L1440 327L1440 501L1296 501L1152 501L1008 501L864 501L720 501L576 501L432 501L288 501L144 501L0 501Z" fill="#432c64"></path><path d="M0 364L144 386L288 390L432 375L576 387L720 384L864 355L1008 358L1152 359L1296 379L1440 382L1440 501L1296 501L1152 501L1008 501L864 501L720 501L576 501L432 501L288 501L144 501L0 501Z" fill="#3e2959"></path><path d="M0 416L144 421L288 386L432 407L576 403L720 380L864 404L1008 416L1152 416L1296 419L1440 376L1440 501L1296 501L1152 501L1008 501L864 501L720 501L576 501L432 501L288 501L144 501L0 501Z" fill="#39264f"></path><path d="M0 419L144 427L288 435L432 438L576 409L720 439L864 445L1008 427L1152 445L1296 401L1440 410L1440 501L1296 501L1152 501L1008 501L864 501L720 501L576 501L432 501L288 501L144 501L0 501Z" fill="#342445"></path><path d="M0 445L144 429L288 467L432 455L576 456L720 454L864 456L1008 440L1152 453L1296 460L1440 467L1440 501L1296 501L1152 501L1008 501L864 501L720 501L576 501L432 501L288 501L144 501L0 501Z" fill="#2f213b"></path><path d="M0 486L144 468L288 481L432 458L576 461L720 481L864 489L1008 483L1152 487L1296 468L1440 489L1440 501L1296 501L1152 501L1008 501L864 501L720 501L576 501L432 501L288 501L144 501L0 501Z" fill="#291e32"></path></svg>