<svg xmlns="http://www.w3.org/2000/svg" xmlns:xlink="http://www.w3.org/1999/xlink" id="visual" version="1.1" viewBox="0 0 1440 327"><path d="M0 309L144 275L288 305L432 279L576 259L720 296L864 318L1008 295L1152 294L1296 327L1440 280L1440 0L1296 0L1152 0L1008 0L864 0L720 0L576 0L432 0L288 0L144 0L0 0Z" fill="#5941a9"/><path d="M0 284L144 255L288 250L432 279L576 281L720 246L864 299L1008 297L1152 249L1296 249L1440 236L1440 0L1296 0L1152 0L1008 0L864 0L720 0L576 0L432 0L288 0L144 0L0 0Z" fill="#563d9d"/><path d="M0 236L144 209L288 275L432 232L576 233L720 209L864 243L1008 242L1152 221L1296 276L1440 236L1440 0L1296 0L1152 0L1008 0L864 0L720 0L576 0L432 0L288 0L144 0L0 0Z" fill="#533a91"/><path d="M0 232L144 197L288 219L432 190L576 227L720 251L864 193L1008 226L1152 221L1296 239L1440 243L1440 0L1296 0L1152 0L1008 0L864 0L720 0L576 0L432 0L288 0L144 0L0 0Z" fill="#4f3685"/><path d="M0 169L144 225L288 210L432 215L576 215L720 196L864 217L1008 221L1152 215L1296 204L1440 218L1440 0L1296 0L1152 0L1008 0L864 0L720 0L576 0L432 0L288 0L144 0L0 0Z" fill="#4b337a"/><path d="M0 162L144 156L288 168L432 151L576 147L720 183L864 147L1008 184L1152 144L1296 199L1440 164L1440 0L1296 0L1152 0L1008 0L864 0L720 0L576 0L432 0L288 0L144 0L0 0Z" fill="#47306e"/><path d="M0 169L144 149L288 144L432 156L576 173L720 128L864 134L1008 174L1152 158L1296 174L1440 160L1440 0L1296 0L1152 0L1008 0L864 0L720 0L576 0L432 0L288 0L144 0L0 0Z" fill="#432c64"/><path d="M0 143L144 147L288 99L432 108L576 112L720 148L864 131L1008 136L1152 124L1296 141L1440 109L1440 0L1296 0L1152 0L1008 0L864 0L720 0L576 0L432 0L288 0L144 0L0 0Z" fill="#3e2959"/><path d="M0 84L144 82L288 113L432 105L576 120L720 76L864 89L1008 84L1152 93L1296 79L1440 90L1440 0L1296 0L1152 0L1008 0L864 0L720 0L576 0L432 0L288 0L144 0L0 0Z" fill="#39264f"/><path d="M0 54L144 72L288 79L432 55L576 71L720 89L864 55L1008 60L1152 53L1296 63L1440 83L1440 0L1296 0L1152 0L1008 0L864 0L720 0L576 0L432 0L288 0L144 0L0 0Z" fill="#342445"/><path d="M0 50L144 31L288 50L432 33L576 67L720 35L864 66L1008 46L1152 52L1296 53L1440 38L1440 0L1296 0L1152 0L1008 0L864 0L720 0L576 0L432 0L288 0L144 0L0 0Z" fill="#2f213b"/><path d="M0 31L144 26L288 36L432 38L576 24L720 38L864 12L1008 25L1152 37L1296 27L1440 21L1440 0L1296 0L1152 0L1008 0L864 0L720 0L576 0L432 0L288 0L144 0L0 0Z" fill="#291e32"/></svg>